<?xml version="1.0" standalone="no"?>
<!DOCTYPE svg PUBLIC "-//W3C//DTD SVG 20010904//EN"
 "http://www.w3.org/TR/2001/REC-SVG-20010904/DTD/svg10.dtd">
<svg version="1.0" xmlns="http://www.w3.org/2000/svg"
 width="1024.000000pt" height="1536.000000pt" viewBox="0 0 1024.000000 1536.000000"
 preserveAspectRatio="xMidYMid meet">

<g transform="translate(0.000000,1536.000000) scale(0.100000,-0.100000)"
fill="#000000" stroke="none">
<path d="M1570 13526 c-200 -55 -402 -259 -464 -465 -14 -49 -16 -516 -16
-5300 0 -4659 1 -5252 15 -5304 28 -109 92 -214 187 -309 79 -79 165 -133 260
-163 l79 -25 3412 0 c3778 0 3456 -6 3599 66 55 27 94 58 158 123 90 92 136
160 173 257 22 59 22 60 27 884 l5 825 48 105 c150 327 204 619 194 1053 -5
252 -19 361 -78 590 l-32 122 5 3095 c3 1759 1 3109 -4 3127 -6 24 -170 192
-636 654 -524 520 -636 626 -682 648 l-55 26 -3075 2 c-2430 1 -3084 -1 -3120
-11z m6057 -299 c1 -2 8 -48 14 -103 51 -467 60 -511 126 -624 48 -83 185
-221 286 -287 54 -37 110 -63 187 -88 101 -32 128 -36 332 -51 123 -8 233 -17
245 -20 l22 -4 3 -393 c2 -215 1 -1441 -2 -2724 l-5 -2331 -90 121 c-105 142
-289 335 -430 454 -377 317 -867 533 -1365 599 -149 20 -449 22 -595 5 -590
-71 -1132 -338 -1565 -771 -209 -209 -359 -418 -494 -690 -157 -316 -242 -635
-266 -1001 -23 -339 40 -739 165 -1060 90 -227 239 -482 402 -684 92 -114 291
-311 409 -405 191 -153 460 -310 674 -393 570 -223 1064 -246 1667 -76 319 89
608 235 886 446 114 87 348 318 417 411 25 34 47 61 50 62 3 0 4 -237 3 -526
-2 -464 -4 -532 -19 -578 -33 -99 -95 -169 -194 -215 l-55 -26 -3390 0 -3390
0 -55 27 c-109 53 -180 150 -200 269 -12 76 -13 10118 -1 10299 9 132 25 173
98 251 52 56 98 87 152 103 28 8 834 10 3007 8 1632 -1 2969 -4 2971 -5z m900
-854 c-7 -6 -209 48 -266 71 -177 72 -274 218 -296 446 l-6 65 285 -289 c157
-159 284 -291 283 -293z m-1652 -4923 c742 -82 1367 -487 1754 -1135 188 -315
295 -685 308 -1066 21 -610 -203 -1185 -634 -1630 -470 -484 -1074 -728 -1743
-706 -419 14 -780 128 -1150 363 -197 125 -415 315 -551 481 -195 237 -357
550 -434 836 -64 234 -90 562 -66 812 49 507 263 976 616 1353 343 366 844
623 1336 685 135 17 437 21 564 7z"/>
<path d="M6483 12274 l-26 -26 7 -374 c3 -206 3 -374 -1 -374 -15 1 -152 244
-282 501 -151 295 -145 289 -280 289 -68 0 -80 -3 -99 -23 l-22 -23 0 -632 0
-631 22 -21 c18 -17 35 -20 105 -20 61 0 91 4 109 17 l26 17 -7 366 c-6 257
-4 369 3 374 13 8 150 -232 301 -529 61 -121 119 -226 128 -232 23 -18 203
-17 227 0 9 7 20 28 24 47 4 19 6 307 4 639 l-4 604 -28 29 c-26 26 -34 28
-105 28 -69 0 -78 -3 -102 -26z"/>
<path d="M3130 12284 c-40 -11 -41 -27 -47 -617 -3 -315 -3 -598 1 -630 11
-85 27 -97 126 -97 73 0 83 3 106 25 l25 25 -1 632 c-1 562 -3 635 -17 651
-13 14 -32 17 -97 16 -45 -1 -88 -3 -96 -5z"/>
<path d="M3598 12271 l-25 -20 -7 -608 c-5 -405 -4 -618 3 -635 6 -15 19 -36
31 -48 19 -19 31 -20 328 -20 368 0 352 -5 352 111 0 75 -16 121 -49 139 -12
6 -99 10 -211 10 l-192 0 2 508 c1 279 2 515 1 524 0 10 -11 26 -23 38 -31 29
-173 29 -210 1z"/>
<path d="M4456 12269 l-26 -20 0 -625 0 -626 30 -29 29 -30 307 3 306 3 24 28
c20 23 24 39 24 93 0 125 -17 134 -264 134 l-184 0 -7 87 c-5 49 -4 270 0 493
11 500 12 456 -15 485 -21 23 -31 25 -110 25 -73 0 -92 -3 -114 -21z"/>
<path d="M5325 12265 l-25 -24 0 -629 0 -629 24 -22 c22 -21 32 -23 110 -20
65 3 89 8 103 22 17 17 18 56 17 652 -1 745 12 675 -121 675 -76 0 -86 -2
-108 -25z"/>
<path d="M2055 12256 l-25 -25 0 -624 c0 -600 1 -626 19 -648 19 -24 22 -24
213 -25 234 -2 290 5 385 50 123 59 208 155 239 268 31 119 5 197 -106 310
l-65 68 43 36 c25 20 62 64 84 98 38 59 40 64 36 131 -5 96 -43 170 -133 261
-109 111 -133 118 -427 122 l-238 3 -25 -25z m472 -247 c79 -39 116 -122 78
-175 -20 -30 -102 -63 -171 -69 -33 -3 -80 -8 -106 -11 l-48 -5 0 139 c0 76 3
142 8 146 4 5 48 6 99 4 70 -4 103 -11 140 -29z m-37 -528 c30 -11 74 -38 98
-58 35 -31 45 -46 49 -81 5 -41 4 -45 -40 -87 -55 -52 -92 -65 -213 -72 -110
-7 -104 -18 -104 179 l0 137 28 4 c48 9 126 -1 182 -22z"/>
<path d="M7275 12263 c-130 -47 -241 -145 -304 -271 -56 -112 -73 -196 -74
-367 0 -178 18 -266 83 -401 57 -118 103 -165 214 -219 230 -112 445 -77 617
102 l59 61 0 225 c0 215 -1 225 -21 243 -19 17 -41 19 -231 22 -257 4 -246 9
-242 -114 3 -121 12 -129 142 -129 l97 0 3 -66 c3 -59 0 -70 -23 -97 -52 -62
-181 -80 -264 -38 -84 44 -155 155 -171 267 -31 212 16 414 115 494 60 49 82
57 145 56 76 -1 104 -13 167 -72 50 -48 53 -49 113 -49 154 0 174 92 50 232
-29 34 -67 61 -127 90 -83 41 -90 43 -192 46 -82 2 -117 -2 -156 -15z"/>
<path d="M2123 10074 c-120 -60 -112 -236 14 -290 27 -12 458 -14 2706 -14
l2673 0 44 23 c33 16 51 34 68 67 39 76 20 151 -52 204 l-27 21 -2697 2
c-2433 2 -2700 1 -2729 -13z"/>
<path d="M2155 9023 c-31 -8 -83 -51 -100 -83 -8 -16 -15 -50 -15 -75 0 -57
19 -96 67 -132 l36 -28 2198 0 2198 0 27 21 c53 39 69 71 69 134 0 44 -5 66
-21 86 -29 40 -65 64 -110 74 -39 10 -4311 12 -4349 3z"/>
<path d="M2140 7949 c-62 -25 -100 -85 -100 -157 0 -54 25 -100 73 -136 28
-21 29 -21 1240 -24 1091 -2 1216 -1 1254 13 132 50 144 225 20 293 -30 16
-116 17 -1247 19 -797 1 -1224 -2 -1240 -8z"/>
<path d="M2125 6566 c-118 -52 -120 -227 -4 -286 38 -20 57 -20 788 -18 739 3
750 3 777 24 52 39 69 71 69 133 0 48 -5 64 -29 95 -52 69 -16 66 -833 66
-590 -1 -744 -3 -768 -14z"/>
<path d="M2122 5493 c-49 -24 -75 -68 -80 -132 -4 -65 19 -109 77 -148 l34
-23 634 0 c565 0 639 2 669 16 43 21 69 57 85 117 10 42 9 51 -12 94 -13 27
-39 58 -58 70 l-34 23 -641 0 c-570 0 -645 -2 -674 -17z"/>
<path d="M6543 6935 c-60 -26 -73 -62 -73 -213 0 -98 -3 -133 -12 -136 -81
-19 -262 -87 -311 -115 -34 -20 -103 -76 -153 -126 -75 -74 -98 -105 -133
-175 -63 -130 -76 -192 -76 -355 1 -116 5 -154 24 -220 36 -126 85 -210 170
-295 118 -117 281 -198 651 -324 293 -101 391 -162 456 -287 25 -48 28 -64 29
-154 0 -91 -3 -105 -29 -158 -52 -101 -155 -179 -283 -212 -76 -20 -260 -20
-338 0 -182 46 -278 143 -330 333 -26 93 -36 97 -216 97 -142 0 -148 -1 -173
-24 -20 -19 -26 -34 -26 -66 0 -102 74 -294 156 -407 107 -146 289 -249 525
-297 68 -14 69 -15 69 -161 0 -90 3 -113 23 -150 31 -62 73 -83 155 -77 69 5
125 38 143 84 5 13 9 85 9 159 0 156 -15 136 139 179 248 68 449 224 551 427
54 108 63 164 58 343 -7 217 -42 308 -172 443 -111 116 -284 210 -581 317
-273 98 -336 124 -405 170 -105 70 -155 148 -170 267 -16 134 14 234 96 314
166 161 450 163 617 5 62 -58 98 -121 121 -206 9 -33 21 -77 27 -97 14 -52 49
-61 221 -57 120 4 140 7 165 25 17 13 29 32 31 50 5 38 -13 130 -45 232 -72
231 -288 421 -565 496 l-83 23 -5 129 c-6 145 -19 181 -73 214 -39 24 -135 26
-184 5z"/>
</g>
</svg>
